<mxfile host="app.diagrams.net" modified="2023-05-29T05:36:28.951Z" agent="Mozilla/5.0 (Windows NT 10.0; Win64; x64) AppleWebKit/537.36 (KHTML, like Gecko) Chrome/113.0.0.0 Safari/537.36" etag="cPlKdSRefe7f9vDzwVu6" version="21.1.4" type="github">
  <diagram name="PÃ¡gina-1" id="9ENc1570Q8Oh9X-erem3">
    <mxGraphModel dx="1050" dy="515" grid="1" gridSize="10" guides="1" tooltips="1" connect="1" arrows="1" fold="1" page="1" pageScale="1" pageWidth="827" pageHeight="1169" math="0" shadow="0">
      <root>
        <mxCell id="0" />
        <mxCell id="1" parent="0" />
        <mxCell id="VcjtVwmhv_vAZ4VsYnBs-1" value="" style="swimlane;startSize=0;" vertex="1" parent="1">
          <mxGeometry x="120" y="30" width="667" height="270" as="geometry" />
        </mxCell>
        <mxCell id="VcjtVwmhv_vAZ4VsYnBs-2" value="" style="swimlane;startSize=0;" vertex="1" parent="VcjtVwmhv_vAZ4VsYnBs-1">
          <mxGeometry x="30" y="30" width="200" height="200" as="geometry" />
        </mxCell>
        <mxCell id="VcjtVwmhv_vAZ4VsYnBs-18" value="VON Network&lt;br&gt;Docker Container" style="text;html=1;align=center;verticalAlign=middle;resizable=0;points=[];autosize=1;strokeColor=none;fillColor=none;" vertex="1" parent="VcjtVwmhv_vAZ4VsYnBs-2">
          <mxGeometry x="40" y="150" width="120" height="40" as="geometry" />
        </mxCell>
        <mxCell id="VcjtVwmhv_vAZ4VsYnBs-19" value="" style="swimlane;startSize=0;" vertex="1" parent="VcjtVwmhv_vAZ4VsYnBs-2">
          <mxGeometry x="20" y="20" width="80" height="110" as="geometry" />
        </mxCell>
        <mxCell id="VcjtVwmhv_vAZ4VsYnBs-20" value="INDY &lt;br&gt;LEDGER" style="text;html=1;align=center;verticalAlign=middle;resizable=0;points=[];autosize=1;strokeColor=none;fillColor=none;" vertex="1" parent="VcjtVwmhv_vAZ4VsYnBs-19">
          <mxGeometry x="5" y="60" width="70" height="40" as="geometry" />
        </mxCell>
        <mxCell id="VcjtVwmhv_vAZ4VsYnBs-21" value="" style="swimlane;startSize=0;" vertex="1" parent="VcjtVwmhv_vAZ4VsYnBs-19">
          <mxGeometry x="10" y="10" width="60" height="50" as="geometry" />
        </mxCell>
        <mxCell id="VcjtVwmhv_vAZ4VsYnBs-38" value="" style="swimlane;startSize=0;" vertex="1" parent="VcjtVwmhv_vAZ4VsYnBs-2">
          <mxGeometry x="110" y="20" width="80" height="110" as="geometry" />
        </mxCell>
        <mxCell id="VcjtVwmhv_vAZ4VsYnBs-39" value="VON&lt;br&gt;Web&amp;nbsp;Page" style="text;html=1;align=center;verticalAlign=middle;resizable=0;points=[];autosize=1;strokeColor=none;fillColor=none;" vertex="1" parent="VcjtVwmhv_vAZ4VsYnBs-38">
          <mxGeometry y="20" width="80" height="40" as="geometry" />
        </mxCell>
        <mxCell id="VcjtVwmhv_vAZ4VsYnBs-3" value="" style="swimlane;startSize=0;" vertex="1" parent="VcjtVwmhv_vAZ4VsYnBs-1">
          <mxGeometry x="249" y="30" width="240" height="200" as="geometry" />
        </mxCell>
        <mxCell id="VcjtVwmhv_vAZ4VsYnBs-26" value="" style="swimlane;startSize=0;" vertex="1" parent="VcjtVwmhv_vAZ4VsYnBs-3">
          <mxGeometry x="18" y="20" width="92" height="110" as="geometry" />
        </mxCell>
        <mxCell id="VcjtVwmhv_vAZ4VsYnBs-28" value="Docker Container" style="text;html=1;align=center;verticalAlign=middle;resizable=0;points=[];autosize=1;strokeColor=none;fillColor=none;" vertex="1" parent="VcjtVwmhv_vAZ4VsYnBs-3">
          <mxGeometry x="55" y="167" width="120" height="30" as="geometry" />
        </mxCell>
        <mxCell id="VcjtVwmhv_vAZ4VsYnBs-33" value="Aries Cloud Agent" style="text;html=1;align=center;verticalAlign=middle;resizable=0;points=[];autosize=1;strokeColor=none;fillColor=none;" vertex="1" parent="VcjtVwmhv_vAZ4VsYnBs-3">
          <mxGeometry x="55" y="150" width="120" height="30" as="geometry" />
        </mxCell>
        <mxCell id="VcjtVwmhv_vAZ4VsYnBs-5" value="" style="swimlane;startSize=0;" vertex="1" parent="VcjtVwmhv_vAZ4VsYnBs-1">
          <mxGeometry x="510" y="30" width="110" height="200" as="geometry" />
        </mxCell>
        <mxCell id="VcjtVwmhv_vAZ4VsYnBs-34" value="Docker&lt;br&gt;Container" style="text;html=1;align=center;verticalAlign=middle;resizable=0;points=[];autosize=1;strokeColor=none;fillColor=none;" vertex="1" parent="VcjtVwmhv_vAZ4VsYnBs-5">
          <mxGeometry x="15" y="150" width="80" height="40" as="geometry" />
        </mxCell>
        <mxCell id="VcjtVwmhv_vAZ4VsYnBs-35" value="Wallet" style="text;html=1;align=center;verticalAlign=middle;resizable=0;points=[];autosize=1;strokeColor=none;fillColor=none;" vertex="1" parent="VcjtVwmhv_vAZ4VsYnBs-5">
          <mxGeometry x="25" y="40" width="60" height="30" as="geometry" />
        </mxCell>
        <mxCell id="VcjtVwmhv_vAZ4VsYnBs-36" value="" style="swimlane;startSize=0;" vertex="1" parent="VcjtVwmhv_vAZ4VsYnBs-5">
          <mxGeometry x="15" y="20" width="80" height="60" as="geometry" />
        </mxCell>
        <mxCell id="VcjtVwmhv_vAZ4VsYnBs-37" value="Postgresql&amp;nbsp;" style="text;html=1;align=center;verticalAlign=middle;resizable=0;points=[];autosize=1;strokeColor=none;fillColor=none;" vertex="1" parent="VcjtVwmhv_vAZ4VsYnBs-5">
          <mxGeometry x="15" y="130" width="80" height="30" as="geometry" />
        </mxCell>
        <mxCell id="VcjtVwmhv_vAZ4VsYnBs-17" value="&lt;b&gt;&lt;font style=&quot;font-size: 14px;&quot;&gt;CLOUD SERVER&lt;/font&gt;&lt;/b&gt;" style="text;html=1;align=center;verticalAlign=middle;resizable=0;points=[];autosize=1;strokeColor=none;fillColor=none;" vertex="1" parent="VcjtVwmhv_vAZ4VsYnBs-1">
          <mxGeometry x="235" y="240" width="130" height="30" as="geometry" />
        </mxCell>
        <mxCell id="VcjtVwmhv_vAZ4VsYnBs-4" value="" style="swimlane;startSize=0;" vertex="1" parent="VcjtVwmhv_vAZ4VsYnBs-1">
          <mxGeometry x="259" y="35" width="220" height="135" as="geometry" />
        </mxCell>
        <mxCell id="VcjtVwmhv_vAZ4VsYnBs-31" value="REST API&lt;br&gt;&lt;br&gt;Listen to ports &lt;br&gt;for events &lt;br&gt;and messages &lt;br&gt;from Aries agent" style="text;html=1;align=center;verticalAlign=middle;resizable=0;points=[];autosize=1;strokeColor=none;fillColor=none;" vertex="1" parent="VcjtVwmhv_vAZ4VsYnBs-4">
          <mxGeometry x="110" y="20" width="110" height="100" as="geometry" />
        </mxCell>
        <mxCell id="VcjtVwmhv_vAZ4VsYnBs-30" value="" style="swimlane;startSize=0;" vertex="1" parent="VcjtVwmhv_vAZ4VsYnBs-4">
          <mxGeometry x="120" y="15" width="89" height="110" as="geometry" />
        </mxCell>
        <mxCell id="VcjtVwmhv_vAZ4VsYnBs-27" value="Aries&lt;br&gt;Protocols" style="text;html=1;align=center;verticalAlign=middle;resizable=0;points=[];autosize=1;strokeColor=none;fillColor=none;" vertex="1" parent="VcjtVwmhv_vAZ4VsYnBs-4">
          <mxGeometry x="20" y="50" width="70" height="40" as="geometry" />
        </mxCell>
        <mxCell id="VcjtVwmhv_vAZ4VsYnBs-11" value="" style="swimlane;startSize=0;" vertex="1" parent="1">
          <mxGeometry x="130" y="630" width="600" height="90" as="geometry" />
        </mxCell>
        <mxCell id="VcjtVwmhv_vAZ4VsYnBs-12" value="" style="swimlane;startSize=0;" vertex="1" parent="1">
          <mxGeometry x="120" y="330" width="670" height="200" as="geometry" />
        </mxCell>
        <mxCell id="VcjtVwmhv_vAZ4VsYnBs-13" value="" style="swimlane;startSize=0;" vertex="1" parent="VcjtVwmhv_vAZ4VsYnBs-12">
          <mxGeometry x="30" y="30" width="140" height="140" as="geometry" />
        </mxCell>
        <mxCell id="VcjtVwmhv_vAZ4VsYnBs-14" value="" style="swimlane;startSize=0;" vertex="1" parent="VcjtVwmhv_vAZ4VsYnBs-12">
          <mxGeometry x="440" y="30" width="140" height="140" as="geometry" />
        </mxCell>
        <mxCell id="VcjtVwmhv_vAZ4VsYnBs-15" value="" style="swimlane;startSize=0;" vertex="1" parent="VcjtVwmhv_vAZ4VsYnBs-12">
          <mxGeometry x="190" y="30" width="90" height="140" as="geometry" />
        </mxCell>
        <mxCell id="VcjtVwmhv_vAZ4VsYnBs-16" value="" style="swimlane;startSize=0;" vertex="1" parent="VcjtVwmhv_vAZ4VsYnBs-12">
          <mxGeometry x="320" y="30" width="90" height="140" as="geometry" />
        </mxCell>
        <mxCell id="VcjtVwmhv_vAZ4VsYnBs-22" value="OPEN&lt;br&gt;PORTS" style="text;html=1;align=center;verticalAlign=middle;resizable=0;points=[];autosize=1;strokeColor=none;fillColor=none;" vertex="1" parent="1">
          <mxGeometry x="180" y="100" width="60" height="40" as="geometry" />
        </mxCell>
        <mxCell id="VcjtVwmhv_vAZ4VsYnBs-23" value="Text" style="text;html=1;strokeColor=none;fillColor=none;align=center;verticalAlign=middle;whiteSpace=wrap;rounded=0;" vertex="1" parent="1">
          <mxGeometry x="380" y="320" width="60" height="30" as="geometry" />
        </mxCell>
        <mxCell id="VcjtVwmhv_vAZ4VsYnBs-24" value="&lt;b&gt;&lt;font style=&quot;font-size: 14px;&quot;&gt;FOG CLIENT&lt;/font&gt;&lt;/b&gt;" style="text;html=1;align=center;verticalAlign=middle;resizable=0;points=[];autosize=1;strokeColor=none;fillColor=none;" vertex="1" parent="1">
          <mxGeometry x="375" y="500" width="110" height="30" as="geometry" />
        </mxCell>
      </root>
    </mxGraphModel>
  </diagram>
</mxfile>
